PathFileType	4	(X/Y/Z)	RBDS021\RBDS021runT45.trc
DataRate	CameraRate	NumFrames	NumMarkers	Units	OrigDataRate	OrigDataStartFrame	OrigNumFrames
150.000000	150.000000	4	33	mm	150.000000	1687	4500
Frame#	Time	L.ASIS			L.Heel.Bottom			L.Heel.Lateral			L.Heel.Top			L.Iliac.Crest			L.MT1			L.MT5			L.PSIS			L.Shank.Bottom.Lateral			L.Shank.Bottom.Medial			L.Shank.Top.Lateral			L.Shank.Top.Medial			L.Thigh.Bottom.Lateral			L.Thigh.Bottom.Medial			L.Thigh.Top.Lateral			L.Thigh.Top.Medial			R.ASIS			R.ASY			R.Heel.Bottom			R.Heel.Lateral			R.Heel.Top			R.Iliac.Crest			R.MT1			R.MT5			R.PSIS			R.Shank.Bottom.Lateral			R.Shank.Bottom.Medial			R.Shank.Top.Lateral			R.Shank.Top.Medial			R.Thigh.Bottom.Lateral			R.Thigh.Bottom.Medial			R.Thigh.Top.Lateral			R.Thigh.Top.Medial			
		X1	Y1	Z1	X2	Y2	Z2	X3	Y3	Z3	X4	Y4	Z4	X5	Y5	Z5	X6	Y6	Z6	X7	Y7	Z7	X8	Y8	Z8	X9	Y9	Z9	X10	Y10	Z10	X11	Y11	Z11	X12	Y12	Z12	X13	Y13	Z13	X14	Y14	Z14	X15	Y15	Z15	X16	Y16	Z16	X17	Y17	Z17	X18	Y18	Z18	X19	Y19	Z19	X20	Y20	Z20	X21	Y21	Z21	X22	Y22	Z22	X23	Y23	Z23	X24	Y24	Z24	X25	Y25	Z25	X26	Y26	Z26	X27	Y27	Z27	X28	Y28	Z28	X29	Y29	Z29	X30	Y30	Z30	X31	Y31	Z31	X32	Y32	Z32	X33	Y33	Z33	

1688	11.24666666666667	2161.938832323387	936.4472121482239	976.559460634718	1745.606532323814	78.71367192549577	1121.567965157465	1762.656262115216	87.64870466048343	1067.401013401704	1765.629279289536	120.8403474147216	1110.996100374738	2089.245124165495	1015.883160514425	931.1456812362475	1952.735500840627	38.12506361448209	1093.750209353178	1887.958681096169	35.99171396554139	997.9880436644986	1991.573116012504	989.8120268789764	1061.730744800326	1866.083470424178	184.0298687546046	1016.367274514426	1839.595460713727	214.016493865315	1054.705966400779	1901.090690215247	251.1152861963614	988.8595924196654	1874.820671684894	281.224277764505	1025.552612134271	2061.781764305021	583.0111799352902	918.2716044499402	1998.720395822766	589.6806096731847	951.3399008738392	2058.653515950677	691.5546221208381	896.7371406943339	1999.122760863312	698.2138057791419	930.0199228423934	2173.415709237712	922.7881963320028	1195.06730033263	1968.457318560078	273.2265356388756	1167.47884341287	1864.411999884889	426.8358677359999	1137.975352191204	1887.3781544475	410.2207791129263	1186.192462640253	1908.888791768565	432.327166217758	1141.299271186895	2112.441367756512	989.6410291971204	1248.338748404622	1943.272978857998	228.1980308235751	1117.938491519109	1922.343338735061	256.501692641891	1226.395926016665	1992.897992678891	980.0850956589974	1140.88551688818	2017.497067417429	423.8158706426547	1202.368693343504	2011.272635736376	451.8625445130392	1159.896658157703	2094.085447770953	457.3741101819209	1212.917453692656	2082.801757393991	487.2667705667887	1170.426464989514	2258.209149786342	620.5443258709055	1240.715713543365	2205.883469047644	581.6184785257345	1206.822248777204	2184.650257320332	700.8495729711834	1255.901109544374	2135.188664983931	662.5554522426455	1224.483584719677	
1689	11.25333333333333	2164.842493266793	937.6040806491957	978.2047505547453	1719.456669523594	88.42367057003861	1119.905061395151	1736.923600715317	95.53842117444817	1065.603294068328	1741.37683703954	129.2350051505393	1108.621249922878	2093.902016235696	1018.685908310791	931.5082386979623	1922.397607177773	37.8017207782564	1093.705626064426	1858.283924168569	36.31719894370494	997.5480636040202	1993.310455786882	992.671834651054	1058.778583554253	1841.467673242914	190.0812041643502	1014.729041878586	1816.1192303721	219.9366286656062	1053.920229891831	1877.586187714809	256.8943604822425	987.9206111441979	1852.204652755448	286.9118004208249	1025.282836746836	2049.729727951572	585.2306402109434	918.6998700517232	1986.593472341059	594.6215846768508	951.1106685269856	2051.632233679265	693.8397509597594	897.3512694605508	1992.164086143549	703.0806489387614	930.2221962087164	2173.08670340867	929.5561316475755	1197.55109971454	1999.716731998038	258.9815722470009	1168.353113030907	1882.358095830449	402.3907822364303	1139.169672794919	1906.758391837544	387.8414101932343	1187.179290310183	1926.149460307669	412.0279476028479	1142.316582188932	2108.168857163922	995.5863688239581	1250.137035734947	1978.682688017644	212.0295421505022	1119.114833901085	1955.255828784972	238.0701879880131	1227.375091961988	1993.165104534704	984.3349619273803	1138.341128886017	2035.875322633697	412.5601924798545	1202.481059232674	2026.763466392715	440.4586455104233	1160.384453794863	2109.327636059431	452.572416471693	1212.506453627428	2094.912903366408	481.8824717149842	1170.525945058006	2266.619112967261	632.8691218657217	1238.150735758975	2215.521868451312	592.1620845048718	1204.552264534045	2190.272877306145	710.2879139288405	1254.765629235358	2141.860281302141	670.2958669455853	1223.900726808113	
1690	11.26	2168.017035927327	939.1018543903384	979.7908219320394	1694.856035030103	99.45051748542107	1117.551627905615	1712.757227820382	104.5341978511524	1063.20400901333	1718.880824941422	138.6114279074273	1105.618156322908	2099.458509403776	1021.353072186866	931.8739381369295	1892.586122257104	37.61280534056285	1093.561684513349	1829.291231553709	36.98857942466589	996.8495037837235	1995.471482230942	995.7002251249706	1055.808117777986	1818.164518722261	196.7351957574133	1012.687598984742	1793.823236490141	226.2298433584427	1052.778402385441	1855.118443048043	263.462592846583	986.7361982169547	1830.481263741717	293.1700691716982	1024.79339607472	2037.782249537008	588.3913352490588	919.3933427738494	1974.947211099716	600.6174892597385	951.4717408638245	2044.760353086734	696.7532745329847	898.1185205654523	1985.65863278584	708.6786030456522	930.8208724985918	2173.329754619644	936.6478803105086	1199.60601385288	2031.935085999748	245.2480032114425	1169.51023938318	1902.301190428732	376.7526372756807	1138.628891563611	1927.623847291269	364.7496476028808	1186.679475950797	1944.977225030649	390.5483206318661	1141.824281992512	2105.114082944324	1001.951939030932	1251.630865089706	2015.613604727785	196.3968639136833	1120.91894797458	1989.173588724349	220.6127273373755	1228.431450590497	1994.014009894032	988.8816859885749	1135.888731359489	2054.604071367149	400.7735941623941	1201.937658603499	2042.823137255565	428.1087797571749	1160.07695596378	2124.247433855882	447.2025220310634	1211.678333031634	2106.93521976517	475.4843770009593	1170.055469559984	2273.862198627398	645.0834998116917	1235.729998443276	2223.791456321454	602.8717227559202	1202.581145294623	2195.317363691453	719.9755323444639	1253.718810260071	2147.811676460452	678.5725953074108	1223.481303835269	
1691	11.26666666666667	2171.335231319185	940.9252925963951	981.2111857774746	1671.976895805613	111.7833555906926	1114.412366619989	1690.320022942493	114.635579569268	1060.113632483037	1698.273112694019	148.9505451441012	1101.91752856976	2105.834504973032	1023.831316130257	932.2348447009834	1863.451417960958	37.67343851171367	1093.230921390617	1801.17864632804	38.15759548320303	995.8277315100313	1997.988614414206	998.9042148248037	1052.901646967847	1796.365747677659	203.9140754661023	1010.211502117573	1772.82921499425	232.8497581315908	1051.186923972243	1833.889422996528	270.7366020084455	985.2748604894214	1809.798797404867	299.9485766982395	1023.999151465628	2026.073337860866	592.5180154722937	920.3953520398152	1963.917331362136	607.6704406909168	952.4526645187801	2038.139753932106	700.308689003041	899.0255113747195	1979.704355351605	715.0019687682918	931.7776004467776	2174.092397585599	943.8203007952565	1201.132574581628	2065.012945049054	232.1864860169582	1170.922788072857	1924.432215494793	350.3809525121523	1136.529216185906	1950.093657929456	341.2486979904029	1184.860299311881	1965.555789321414	368.2496080480259	1139.971774612874	2103.264853226666	1008.612852300332	1252.758468555005	2053.943584318904	181.6101966186667	1123.261367356024	2023.942083832527	204.2416987129355	1229.567988070795	1995.408770206463	993.6671671044021	1133.593834644788	2073.796330597252	388.5529897956998	1200.811631240752	2059.660768149896	414.9285914830313	1159.016774597759	2139.001246709282	441.1941598820349	1210.465265194763	2119.133484999476	468.0309901861347	1169.007670706189	2280.01538746748	656.8364328923217	1233.51330501153	2230.722473920162	613.3602180517116	1201.017248819104	2199.822292204673	729.6233829197919	1252.757751036274	2153.038124811644	687.0653089726017	1223.253912617492	
